# xmcd
#
# Track frame offsets:
#	150
#	27891
#	49746
#	61411
#	80935
#	96264
#	112211
#	135805
#	167166
#	187778
#	207565
#
# Disc length: 2998 seconds
#
# Revision: 1
# Processed by: cddbd v1.5.1PL0 Copyright (c) Steve Scherf et al.
# Submitted via: EasyCDDAExtractor 7.1.0.1
#
DISCID=980bb40b
DTITLE=Aron Razel - Water from the Rock
DYEAR=1900
DGENRE=soul
TTITLE0=Water from the Rock
TTITLE1=Hagigah
TTITLE2=Go out to the field
TTITLE3=It isn't in Heaven
TTITLE4=I lift my Eyes
TTITLE5=To my Father
TTITLE6=I'm to my love as my love is to me
TTITLE7=Ki Rega B'apo
TTITLE8=Dror Yikra
TTITLE9=The secret of G-d
TTITLE10=My heart is meek
EXTD=
EXTT0=
EXTT1=
EXTT2=
EXTT3=
EXTT4=
EXTT5=
EXTT6=
EXTT7=
EXTT8=
EXTT9=
EXTT10=
PLAYORDER=
